# xmcd
#
# Track frame offsets: 
#        150
#        10364
#        24333
#        42647
#        51550
#        69471
#        88614
#        102735
#        115302
#        129428
#        144101
#        159496
#        173683
#
# Disc length: 2573 seconds
#
# Revision: 0
# Processed by: cddbd v1.5.2PL0 Copyright (c) Steve Scherf et al.
# Submitted via: ExactAudioCopy v0.99pb5
#
DISCID=b00a0b0d
DTITLE=Bena and Ptaszek - Music Of The Mississippi River
DYEAR=2011
DGENRE=Blues
TTITLE0=On A Monday
TTITLE1=The House Of The Rising Sun
TTITLE2=I Got A Woman
TTITLE3=Railroad Bill
TTITLE4=Picking My Tomatoes
TTITLE5=See That My Grave Is Kept Clean
TTITLE6=Creolle Belle
TTITLE7=Goodnight, Irene
TTITLE8=Take This Hammer
TTITLE9=Key To The Highway
TTITLE10=My Babe
TTITLE11=Bring Me Little Water, Silvie
TTITLE12=John Henry
EXTD=
EXTT0=
EXTT1=
EXTT2=
EXTT3=
EXTT4=
EXTT5=
EXTT6=
EXTT7=
EXTT8=
EXTT9=
EXTT10=
EXTT11=
EXTT12=
PLAYORDER=
